<svg width="52" height="52" viewBox="0 0 52 52" fill="ff6838" xmlns="http://www.w3.org/2000/svg">
<g clip-path="url(ff6838)" filter="url(ff6838)">
<path d="M45.7999 6.59989H44.3333V5.13319C44.3333 3.91821 43.3482 2.93319 42.1333 2.93319H40.3865L39.3253 0.810968C39.0787 0.312358 38.5697 -0.00234463 38.0134 -0.00011025H37C36.1899 -0.00011025 35.5333 0.656538 35.5333 1.46659V2.93328H27.4666C26.2515 2.93328 25.2666 3.91821 25.2666 5.13328V6.59989H23.8C22.585 6.59989 21.6 7.58491 21.6 8.79989V10.2666C21.6 11.0766 22.2566 11.7333 23.0666 11.7333H23.1444L24.0024 19.31L20.4692 18.4799C20.291 18.2057 20.1025 17.9336 19.8928 17.6666L18.6461 12.3008C18.5691 11.969 18.2739 11.734 17.9333 11.7332H13.7196C11.7315 9.98127 9.38187 9.18927 7.60941 9.71066L6.53287 8.53735C6.12605 8.09323 5.48693 7.94722 4.92765 8.17066C4.36742 8.38653 3.9984 8.92553 3.99995 9.52589V41.8146C4.00158 43.0208 4.97904 43.9983 6.18526 43.9999H42.1333C42.5061 43.9996 42.8193 43.7198 42.8615 43.3494L46.4541 11.7332H46.5333C47.3434 11.7332 48 11.0765 48 10.2665V8.79989C48 7.58491 47.015 6.59989 45.7999 6.59989ZM37 1.46659H38.0134L38.7467 2.93328H37V1.46659ZM26.7333 5.13319C26.7333 4.72817 27.0616 4.39989 27.4666 4.39989H42.1333C42.5383 4.39989 42.8666 4.72817 42.8666 5.13319V6.59989H26.7333V5.13319ZM24.68 20.9732L24.7262 20.982L25.3187 21.1227L25.7162 25.2844C24.5645 24.469 23.1864 24.0346 21.7753 24.0421C22.0469 22.7482 21.9031 21.4017 21.3646 20.1943L24.68 20.9732ZM26.1129 27.4596L26.1224 27.4677C26.388 27.7134 26.6403 27.9734 26.8777 28.2464C27.7502 29.2199 28.3917 30.3778 28.7543 31.6337C28.8783 32.0711 28.9421 32.5233 28.9443 32.9779L22.095 25.5081C23.6184 25.6787 25.0369 26.3677 26.1129 27.4596ZM18.385 18.1397V18.1382C19.9676 19.9569 20.7046 22.1415 20.3548 23.6096L12.8916 15.4733C14.3972 15.1367 16.6866 16.1941 18.385 18.1397ZM17.3466 13.1999L17.9333 15.6969C17.344 15.237 16.7017 14.8495 16.0201 14.5427C15.7429 14.0738 15.4329 13.6251 15.0924 13.1999H17.3466ZM13.6602 13.7455H13.6631C13.724 13.8152 13.7739 13.8922 13.8325 13.9655C13.144 13.9021 12.4509 14.0185 11.821 14.3036L8.80618 11.016C10.2803 11.0373 12.2038 12.0742 13.6602 13.7455ZM34.737 42.1025C34.6235 42.3636 34.3661 42.5328 34.0813 42.5333H27.4666H6.18526C5.78831 42.5333 5.46656 42.2115 5.46656 41.8146L5.45333 9.53328L20.1721 25.5815V25.5852L28.8166 35.0093L28.8262 35.0203L33.568 40.1917C33.5848 40.2137 33.6024 40.2357 33.6215 40.257L34.6049 41.3291C34.7987 41.5377 34.8506 41.8413 34.737 42.1025ZM30.1976 34.3448C30.3318 33.9069 30.4 33.4513 30.4 32.9933C30.7852 33.3182 31.1442 33.673 31.4736 34.0544C31.8832 34.5225 32.2469 35.0289 32.5596 35.5666C32.9879 36.2867 33.2906 37.0742 33.455 37.8957L30.1976 34.3448ZM41.4784 42.5333H36.1361C36.4108 41.7734 36.2366 40.9238 35.6851 40.3333L34.9466 39.5266C35.0915 38.299 34.8935 37.0552 34.3746 35.9333H42.2286L41.4784 42.5333ZM42.3951 34.4666H33.5951C33.2941 33.9836 32.9568 33.5242 32.586 33.0923C31.8643 32.2546 31.0171 31.534 30.0743 30.956C29.6434 29.5974 28.931 28.3447 27.9836 27.2798C27.7636 27.0305 27.5436 26.798 27.3126 26.5743L26.7333 20.4635C26.7035 20.1509 26.4779 19.892 26.1723 19.8197L25.5226 19.6657L25.3686 18.3332H44.2292L42.3951 34.4666ZM44.3956 16.8666H25.2021L24.6213 11.7333H44.9786L44.3956 16.8666ZM46.5333 10.2666H23.0666V8.79989C23.0666 8.39487 23.3949 8.06658 23.8 8.06658H45.7999C46.205 8.06658 46.5333 8.39487 46.5333 8.79989V10.2666Z" fill="#ff6838"/>
<path d="M35.1006 32.2667C35.1423 32.2667 35.1834 32.2608 35.2245 32.2594C35.2355 32.2594 35.2465 32.2667 35.2575 32.2667C35.2943 32.2644 35.3308 32.2593 35.3667 32.2513C36.5147 32.1738 37.5724 31.6017 38.2655 30.6834C39.1895 29.3853 39.4536 27.7299 38.9798 26.2087C38.8778 25.8288 38.7847 25.4563 38.6945 25.0962C38.1225 22.8031 37.5762 20.6404 35.2596 20.543C35.2362 20.543 35.2142 20.5386 35.1907 20.5386C35.1672 20.5386 35.1328 20.5334 35.1005 20.5334C32.5089 20.5334 30.3998 23.1654 30.3998 26.4001C30.3998 29.6349 32.5089 32.2667 35.1006 32.2667ZM35.6682 22.11C36.4264 22.4077 36.7601 23.4014 37.2719 25.451C37.3636 25.8177 37.4589 26.202 37.5652 26.5914C37.9163 27.6723 37.7448 28.8549 37.101 29.7916C36.8673 30.0981 36.5682 30.3486 36.2254 30.5249C36.2006 29.2643 35.9524 28.0181 35.4921 26.8443C35.4188 26.6155 35.3454 26.3947 35.2809 26.1843C34.8542 24.7962 35.3542 22.9973 35.6682 22.11ZM34.0922 22.22C33.615 23.6363 33.5416 25.1577 33.8802 26.6134C33.9477 26.8334 34.0225 27.0614 34.1002 27.2983C34.4669 28.4174 34.9069 29.7704 34.7272 30.7662C33.1198 30.5154 31.8665 28.6542 31.8665 26.4C31.8666 24.453 32.8016 22.8 34.0922 22.22Z" fill="#ff6838"/>
<path d="M7.88139 38.563L7.36293 39.0815C7.17232 39.2657 7.09584 39.5383 7.16296 39.7947C7.23007 40.0511 7.43031 40.2514 7.68666 40.3184C7.9431 40.3855 8.21569 40.309 8.39985 40.1184L8.91831 39.6C9.19624 39.3122 9.19228 38.8548 8.90938 38.572C8.62656 38.2891 8.16911 38.2851 7.88139 38.563Z" fill="#ff6838"/>
<path d="M14.8929 33.6264C15.1794 33.3399 15.1794 32.8753 14.8929 32.5887C14.6064 32.3021 14.1418 32.3021 13.8552 32.5887L13.3367 33.1071C13.1514 33.2923 13.0789 33.5624 13.1466 33.8155C13.2143 34.0687 13.412 34.2664 13.6651 34.3343C13.9182 34.4022 14.1883 34.3299 14.3736 34.1447L14.8929 33.6264Z" fill="#ff6838"/>
<path d="M8.39994 31.7482L7.88148 32.2667C7.69087 32.4509 7.61439 32.7234 7.6815 32.9799C7.74862 33.2362 7.94885 33.4365 8.20521 33.5036C8.46164 33.5707 8.73424 33.4942 8.9184 33.3036L9.43686 32.7851C9.71478 32.4974 9.71083 32.04 9.42793 31.7572C9.1451 31.4743 8.68766 31.4703 8.39994 31.7482Z" fill="#ff6838"/>
<path d="M8.39994 26.6149L7.88148 27.1333C7.69087 27.3175 7.61439 27.5901 7.6815 27.8465C7.74862 28.1029 7.94885 28.3031 8.20521 28.3702C8.46164 28.4373 8.73424 28.3609 8.9184 28.1702L9.43686 27.6518C9.71478 27.3641 9.71083 26.9066 9.42793 26.6238C9.1451 26.341 8.68766 26.337 8.39994 26.6149Z" fill="#ff6838"/>
<path d="M15 38.563L14.4815 39.0815C14.2909 39.2657 14.2144 39.5383 14.2816 39.7947C14.3487 40.0511 14.5489 40.2514 14.8053 40.3184C15.0617 40.3855 15.3343 40.309 15.5185 40.1184L16.0369 39.6C16.3148 39.3122 16.3109 38.8548 16.028 38.572C15.7452 38.2891 15.2877 38.2851 15 38.563Z" fill="#ff6838"/>
<path d="M20.3481 38.5631L19.8297 39.0816C19.6391 39.2658 19.5626 39.5384 19.6297 39.7948C19.6968 40.0512 19.897 40.2515 20.1534 40.3185C20.4098 40.3856 20.6824 40.3091 20.8666 40.1185L21.385 39.6001C21.663 39.3123 21.659 38.8549 21.3761 38.5721C21.0932 38.2893 20.6358 38.2852 20.3481 38.5631Z" fill="#ff6838"/>
</g>
<defs>
<filter id="filter0_d_0_263" x="0" y="0" width="52" height="52" filterUnits="userSpaceOnUse" color-interpolation-filters="sRGB">
<feFlood flood-opacity="0" result="BackgroundImageFix"/>
<feColorMatrix in="SourceAlpha" type="matrix" values="0 0 0 0 0 0 0 0 0 0 0 0 0 0 0 0 0 0 127 0" result="hardAlpha"/>
<feOffset dy="4"/>
<feGaussianBlur stdDeviation="2"/>
<feComposite in2="hardAlpha" operator="out"/>
<feColorMatrix type="matrix" values="0 0 0 0 0 0 0 0 0 0 0 0 0 0 0 0 0 0 0.25 0"/>
<feBlend mode="normal" in2="BackgroundImageFix" result="effect1_dropShadow_0_263"/>
<feBlend mode="normal" in="SourceGraphic" in2="effect1_dropShadow_0_263" result="shape"/>
</filter>
<clipPath id="clip0_0_263">
<rect width="44" height="44" fill="#ff6838" transform="translate(4)"/>
</clipPath>
</defs>
</svg>
