<?xml version="1.0" standalone="no"?>
<!DOCTYPE svg PUBLIC "-//W3C//DTD SVG 20010904//EN"
 "http://www.w3.org/TR/2001/REC-SVG-20010904/DTD/svg10.dtd">
<svg version="1.0" xmlns="http://www.w3.org/2000/svg"
 width="512.000000pt" height="512.000000pt" viewBox="0 0 512.000000 512.000000"
 preserveAspectRatio="xMidYMid meet">
<metadata>
Created by potrace 1.14, written by Peter Selinger 2001-2017
</metadata>
<g transform="translate(0.000000,512.000000) scale(0.100000,-0.100000)"
fill="#000000" stroke="none">
<path d="M0 2560 l0 -2560 2560 0 2560 0 0 2560 0 2560 -2560 0 -2560 0 0
-2560z m2754 1299 c350 -47 647 -264 741 -542 34 -103 34 -159 -2 -187 -26
-20 -36 -21 -234 -18 -239 3 -233 1 -268 98 -39 106 -146 189 -291 226 -97 25
-303 16 -387 -17 -143 -56 -203 -134 -203 -263 1 -199 115 -271 645 -410 407
-106 578 -184 703 -320 97 -106 142 -239 142 -416 0 -172 -47 -312 -147 -435
-184 -227 -545 -351 -969 -331 -532 24 -898 270 -956 641 -11 70 -10 77 9 103
l20 27 209 2 c244 3 232 7 290 -106 58 -113 159 -189 304 -228 87 -23 336 -23
430 0 126 31 212 84 260 162 30 48 43 132 30 191 -32 145 -139 207 -555 320
-488 134 -650 205 -778 344 -108 116 -152 246 -151 445 0 114 3 139 26 206 65
185 179 310 373 407 206 104 475 139 759 101z"/>
</g>
</svg>
